<svg xmlns="http://www.w3.org/2000/svg" viewBox="0 0 32 32">
  <path fill="#25D366" d="M16 .4C7.4.4.4 7.4.4 16c0 2.8.7 5.5 2.1 7.9L0 32l8.3-2.2c2.3 1.3 4.9 2 7.7 2 8.6 0 15.6-7 15.6-15.6S24.6.4 16 .4zm0 28.6c-2.4 0-4.7-.6-6.7-1.8l-.5-.3-4.9 1.3 1.3-4.8-.3-.5c-1.3-2.1-2-4.5-2-7 0-7.3 5.9-13.2 13.2-13.2S29.2 8.7 29.2 16 23.3 29 16 29zm7.3-9.9c-.4-.2-2.3-1.1-2.7-1.3-.4-.1-.7-.2-1 .2s-1.1 1.3-1.3 1.5c-.2.2-.4.3-.8.1-2.3-1.1-3.9-2-5.5-4.5-.4-.7.4-.7 1.1-2.3.1-.2 0-.4 0-.6s-1-2.4-1.4-3.3c-.4-.9-.8-.8-1.1-.8h-.9c-.3 0-.8.1-1.2.6-.4.4-1.6 1.6-1.6 3.9s1.7 4.6 2 5c.2.4 3.4 5.2 8.3 7.3 1.2.5 2.1.8 2.9 1 .1 0 .3.1.4.1.6.1 1.1.1 1.6.1.5 0 1.5-.2 2.2-.9.7-.7 1-1.5 1.1-1.8.1-.3.1-.6 0-.7-.1-.1-.3-.2-.7-.4z"></path>
</svg>